<svg width="29" height="32" viewBox="0 0 29 32" fill="none" xmlns="http://www.w3.org/2000/svg">
<path d="M20.0266 17.22C22.2108 15.4656 23.6253 12.7096 23.6253 9.6C23.6253 4.2984 19.5305 0 14.48 0C9.42953 0 5.33474 4.2984 5.33474 9.6C5.33474 12.7096 6.7492 15.4656 8.9334 17.22C3.68859 19.6248 0 25.332 0 32H28.96C28.96 25.332 25.2714 19.6248 20.0266 17.22ZM8.38316 9.6C8.38316 6.0712 11.1184 3.2 14.48 3.2C17.8416 3.2 20.5768 6.0712 20.5768 9.6C20.5768 13.1288 17.8416 16 14.48 16C11.1184 16 8.38316 13.1288 8.38316 9.6ZM14.48 19.2C19.7972 19.2 24.2776 23.2856 25.5496 28.8H3.41042C4.68237 23.2856 9.16279 19.2 14.48 19.2Z" fill="#EBEBEB"/>
</svg>
