<svg width="30" height="32" viewBox="0 0 30 32" fill="none" xmlns="http://www.w3.org/2000/svg">
<path d="M20.9167 17.22C23.1009 15.4656 24.5154 12.7096 24.5154 9.6C24.5154 4.2984 20.4206 0 15.3701 0C10.3197 0 6.22487 4.2984 6.22487 9.6C6.22487 12.7096 7.63934 15.4656 9.82353 17.22C4.57873 19.6248 0.890137 25.332 0.890137 32H29.8501C29.8501 25.332 26.1615 19.6248 20.9167 17.22ZM9.27329 9.6C9.27329 6.0712 12.0085 3.2 15.3701 3.2C18.7318 3.2 21.467 6.0712 21.467 9.6C21.467 13.1288 18.7318 16 15.3701 16C12.0085 16 9.27329 13.1288 9.27329 9.6ZM15.3701 19.2C20.6873 19.2 25.1678 23.2856 26.4397 28.8H4.30056C5.57251 23.2856 10.0529 19.2 15.3701 19.2Z" fill="#657F88"/>
</svg>
