<svg width="37" height="36" viewBox="0 0 37 36" fill="none" xmlns="http://www.w3.org/2000/svg">
<path d="M27.8289 26.8889C25.791 26.8889 24.1391 28.4807 24.1391 30.4444C24.1391 32.4082 25.791 34 27.8289 34C29.8668 34 31.5188 32.4082 31.5188 30.4444C31.5188 28.4807 29.8668 26.8889 27.8289 26.8889ZM27.8289 26.8889H13.6119C12.7612 26.8889 12.3351 26.8889 11.9849 26.7431C11.676 26.6144 11.408 26.4073 11.2127 26.1431C10.9938 25.8471 10.9058 25.4512 10.7315 24.6676L6.19071 4.24827C6.01241 3.44645 5.92207 3.04601 5.70066 2.74652C5.50539 2.4824 5.23742 2.27451 4.92848 2.14587C4.57821 2 4.15448 2 3.30349 2H2M7.53477 7.33333H31.2848C32.6165 7.33333 33.2816 7.33333 33.7286 7.60064C34.1201 7.83477 34.4066 8.20199 34.5315 8.62933C34.6743 9.11721 34.4909 9.73326 34.122 10.9662L31.5675 19.4996C31.3468 20.2366 31.2363 20.6044 31.0125 20.878C30.8149 21.1195 30.5542 21.3084 30.2587 21.4245C29.9249 21.5556 29.5283 21.5556 28.7368 21.5556H10.7274M11.2246 34C9.18677 34 7.53477 32.4082 7.53477 30.4444C7.53477 28.4807 9.18677 26.8889 11.2246 26.8889C13.2625 26.8889 14.9145 28.4807 14.9145 30.4444C14.9145 32.4082 13.2625 34 11.2246 34Z" stroke="#657F88" stroke-width="3" stroke-linecap="round" stroke-linejoin="round"/>
</svg>
