<svg width="25" height="25" viewBox="0 0 25 25" fill="none" xmlns="http://www.w3.org/2000/svg">
<path d="M18.5 18.5C17.1193 18.5 16 19.6193 16 21C16 22.3807 17.1193 23.5 18.5 23.5C19.8807 23.5 21 22.3807 21 21C21 19.6193 19.8807 18.5 18.5 18.5ZM18.5 18.5H8.86744C8.2911 18.5 8.00241 18.5 7.76514 18.3975C7.55583 18.307 7.37422 18.1614 7.24192 17.9756C7.09362 17.7675 7.03399 17.4891 6.91592 16.9381L3.83935 2.58081C3.71855 2.01704 3.65734 1.73547 3.50732 1.5249C3.37502 1.33919 3.19346 1.19301 2.98415 1.10256C2.74682 1 2.45974 1 1.88316 1H1M4.75 4.75H20.8415C21.7437 4.75 22.1944 4.75 22.4972 4.93795C22.7625 5.10258 22.9566 5.36078 23.0412 5.66125C23.138 6.00429 23.0137 6.43745 22.7637 7.30432L21.033 13.3044C20.8835 13.8226 20.8086 14.0813 20.657 14.2736C20.5231 14.4434 20.3465 14.5763 20.1462 14.6579C19.9201 14.75 19.6514 14.75 19.1151 14.75H6.91309M7.25 23.5C5.86929 23.5 4.75 22.3807 4.75 21C4.75 19.6193 5.86929 18.5 7.25 18.5C8.63071 18.5 9.75 19.6193 9.75 21C9.75 22.3807 8.63071 23.5 7.25 23.5Z" stroke="#ffffff" stroke-width="2" stroke-linecap="round" stroke-linejoin="round"/>
</svg>
