<svg width="22" height="30" viewBox="0 0 22 30" fill="none" xmlns="http://www.w3.org/2000/svg">
<path d="M2.42857 7.58824V25.7059C2.42857 27.5252 3.70776 29 5.28571 29H16.7143C18.2923 29 19.5714 27.5252 19.5714 25.7059V7.58824M2.42857 7.58824H1M2.42857 7.58824H5.28571M19.5714 7.58824H21M19.5714 7.58824H16.7143M5.28571 7.58824V4.29412C5.28571 2.47483 6.5649 1 8.14286 1H13.8571C15.4351 1 16.7143 2.47483 16.7143 4.29412V7.58824M5.28571 7.58824H16.7143M14.2765 15.7L11.0384 19.2L7.80028 22.7M7.8 15.7L14.2762 22.7" stroke="#02242F" stroke-width="2" stroke-linecap="round" stroke-linejoin="round"/>
</svg>
