<svg width="40" height="27" viewBox="0 0 40 27" fill="none" xmlns="http://www.w3.org/2000/svg">
<path fill-rule="evenodd" clip-rule="evenodd" d="M20 5.78571C20 5.10493 20.144 3.85714 20.368 3.85714H0V7.71429H20.368C20.144 7.71429 20 6.4665 20 5.78571ZM35.632 3.85714C34.806 1.92857 32.608 0 30 0C26.686 0 24 2.59007 24 5.78571C24 8.98136 26.686 11.5714 30 11.5714C32.608 11.5714 34.806 9.64286 35.632 7.71429H40V3.85714H35.632ZM20 21.2143C20 21.8951 19.856 22.5373 19.632 23.1429H40V19.2857H19.632C19.856 19.2857 20 20.5335 20 21.2143ZM16 21.2143C16 24.4099 13.314 27 10 27C7.392 27 5.194 25.0714 4.368 23.1429H0V19.2857H4.368C5.194 17.3571 7.392 15.4286 10 15.4286C13.314 15.4286 16 18.0186 16 21.2143Z" fill="#657F88"/>
</svg>
